<?xml version="1.0" encoding="utf-8"?>
<!-- Generator: Adobe Illustrator 22.1.0, SVG Export Plug-In . SVG Version: 6.00 Build 0)  -->
<svg version="1.1" id="Calque_1" xmlns="http://www.w3.org/2000/svg" xmlns:xlink="http://www.w3.org/1999/xlink" x="0px" y="0px"
	 viewBox="0 0 600 300" style="enable-background:new 0 0 600 300;" xml:space="preserve">
<style type="text/css">
	.st0{fill:#333333;}
	.st1{fill:#888989;}
	.st2{fill:url(#SVGID_1_);}
	.st3{fill:url(#SVGID_2_);}
</style>
<g>
	<path class="st0" d="M209.2,168l-6.1-18.7h-28.9L168,168h-4.7l22.5-66.6h5.8l22.5,66.6H209.2z M175.5,145.2h26.3l-13.1-40
		L175.5,145.2z"/>
	<path class="st0" d="M262,96.4V168h-3.9l-0.5-8c-1.6,2.7-3.6,4.9-6.2,6.6c-2.6,1.7-5.7,2.5-9.4,2.5c-5.8,0-10.4-2.4-13.8-7.1
		c-3.4-4.7-5.1-11.1-5.1-19.2c0-5.3,0.8-9.9,2.4-13.9c1.6-4,3.9-7.1,6.9-9.3c3-2.2,6.5-3.4,10.6-3.4c6,0,10.8,2.4,14.5,7.1V95.8
		L262,96.4z M251.2,162.6c2.3-1.7,4.4-4.2,6.3-7.6v-27c-3.6-5.4-8.3-8.1-13.9-8.1c-4.7,0-8.6,2-11.4,5.9c-2.9,4-4.3,9.5-4.3,16.6
		c0,7.2,1.3,12.8,3.9,16.8c2.6,4,6.2,5.9,10.9,5.9C246,165.2,248.9,164.3,251.2,162.6z"/>
	<path class="st0" d="M341.9,120.3c2.3,2.8,3.4,6.6,3.4,11.4V168h-4.5v-35.6c0-4.2-0.8-7.4-2.4-9.4c-1.6-2-3.8-3.1-6.8-3.1
		c-3,0-5.7,1-8.2,2.9c-2.5,1.9-4.8,4.6-6.9,8.1V168h-4.5v-35.6c0-4.2-0.8-7.4-2.4-9.4c-1.6-2-3.8-3.1-6.8-3.1c-3,0-5.7,1-8.2,2.9
		c-2.5,1.9-4.8,4.6-6.9,8.1V168h-4.5v-50.8h3.9l0.4,9c2-3.1,4.4-5.6,7.1-7.3s5.7-2.6,8.9-2.6c3.2,0,6,0.9,8.1,2.7
		c2.2,1.8,3.6,4.4,4.3,7.7c2.1-3.2,4.5-5.8,7.3-7.6s5.8-2.8,9-2.8C336.5,116.2,339.7,117.6,341.9,120.3z"/>
	<path class="st0" d="M371.1,96.5c0.6,0.6,1,1.5,1,2.4s-0.3,1.8-1,2.4c-0.6,0.6-1.5,1-2.5,1c-1,0-1.9-0.3-2.5-1
		c-0.6-0.6-1-1.5-1-2.4s0.3-1.8,1-2.4c0.6-0.6,1.5-1,2.5-1C369.6,95.5,370.4,95.9,371.1,96.5z M370.8,117.1V168h-4.5v-50.8H370.8z"
		/>
	<path class="st0" d="M414.4,165.9c-3.2,2.1-6.8,3.1-10.5,3.1c-3.7,0-6.6-1.1-8.7-3.3c-2.1-2.2-3.2-5.5-3.2-9.7v-35.1h-8.5v-3.8h8.5
		v-12.4l4.5-0.5v12.9h13.4l-0.6,3.8h-12.9v34.8c0,6.2,2.6,9.3,7.9,9.3c2.7,0,5.5-0.8,8.2-2.3L414.4,165.9z"/>
	<path class="st0" d="M458.6,144.5h-34.5c0.3,6.9,2,12.1,5,15.5c3,3.4,6.9,5.1,11.7,5.1c2.7,0,5.1-0.4,7.2-1.2
		c2.1-0.8,4.3-2.1,6.6-3.9l2.2,2.9c-2.5,2.1-5,3.6-7.6,4.7c-2.6,1-5.5,1.6-8.7,1.6c-6.6,0-11.7-2.3-15.5-6.9
		c-3.8-4.6-5.6-11-5.6-19.2c0-5.4,0.8-10.1,2.4-14.2c1.6-4.1,3.9-7.2,7-9.3c3-2.2,6.5-3.3,10.6-3.3c6.3,0,11.1,2.2,14.4,6.5
		c3.3,4.4,5,10.3,5,17.8C458.8,141.9,458.8,143.2,458.6,144.5z M454.4,139.1c0-5.9-1.2-10.6-3.7-14c-2.5-3.4-6.2-5.1-11.1-5.1
		c-4.4,0-8,1.7-10.9,5.2c-2.8,3.5-4.4,8.7-4.6,15.7h30.3V139.1z"/>
	<path class="st0" d="M500.1,117.3c2.2,0.8,4.3,2,6.4,3.8l-2.3,3c-1.7-1.4-3.4-2.4-5.2-3.1c-1.8-0.7-3.8-1-6.2-1
		c-5.1,0-9.1,1.9-12.1,5.8c-3,3.9-4.5,9.5-4.5,16.9c0,7.3,1.5,12.8,4.5,16.6c3,3.8,7,5.6,12.1,5.6c2.3,0,4.4-0.4,6.3-1.1
		c1.9-0.7,3.7-1.9,5.6-3.4l2.3,3c-4,3.6-8.8,5.5-14.2,5.5c-4.3,0-8-1-11.2-3.1s-5.7-5.1-7.5-9c-1.8-3.9-2.6-8.6-2.6-14.1
		c0-5.4,0.9-10.1,2.6-14.1c1.8-4,4.2-7.1,7.4-9.3c3.2-2.2,6.9-3.3,11.2-3.3C495.4,116.2,497.9,116.6,500.1,117.3z"/>
	<path class="st0" d="M553.2,120.3c2.4,2.7,3.6,6.6,3.6,11.5V168h-4.5v-35.6c0-8.3-3.4-12.5-10.1-12.5c-3.4,0-6.5,1-9.2,2.9
		c-2.7,1.9-5.2,4.6-7.6,8.1V168H521V96.4l4.5-0.6v30.3c4.8-6.6,10.6-9.9,17.4-9.9C547.4,116.2,550.9,117.5,553.2,120.3z"/>
	<path class="st0" d="M579.3,162.4c0.7,0.7,1.1,1.7,1.1,2.8c0,1.1-0.4,2-1.1,2.8c-0.7,0.7-1.7,1.1-2.9,1.1c-1.1,0-2-0.4-2.8-1.1
		c-0.7-0.7-1.1-1.7-1.1-2.8c0-1.1,0.4-2,1.1-2.8c0.7-0.7,1.7-1.1,2.8-1.1C577.6,161.3,578.6,161.6,579.3,162.4z"/>
</g>
<g>
	<path class="st1" d="M174.5,186.3l-4.8,14.7h-1.2l-4.8-14.7h1.1l4.3,13.6l4.3-13.6H174.5z"/>
	<path class="st1" d="M183.9,191.1c0.8,1,1.2,2.4,1.2,4.3c0,1.8-0.4,3.3-1.2,4.3c-0.8,1-2,1.6-3.4,1.6s-2.6-0.5-3.4-1.6
		c-0.8-1-1.2-2.5-1.2-4.3c0-1.8,0.4-3.2,1.3-4.3c0.8-1,2-1.6,3.4-1.6C181.9,189.6,183,190.1,183.9,191.1z M177.8,191.7
		c-0.6,0.8-1,2.1-1,3.7c0,1.6,0.3,2.8,0.9,3.7c0.6,0.9,1.5,1.3,2.7,1.3c1.1,0,2-0.4,2.7-1.3c0.6-0.9,1-2.1,1-3.7
		c0-1.6-0.3-2.8-0.9-3.7c-0.6-0.8-1.5-1.3-2.7-1.3C179.3,190.4,178.4,190.8,177.8,191.7z"/>
	<path class="st1" d="M193.8,200.5c-0.7,0.5-1.5,0.7-2.3,0.7c-0.8,0-1.5-0.2-1.9-0.7c-0.5-0.5-0.7-1.2-0.7-2.1v-7.7H187v-0.8h1.9
		v-2.7l1-0.1v2.8h3l-0.1,0.8h-2.8v7.6c0,1.4,0.6,2.1,1.7,2.1c0.6,0,1.2-0.2,1.8-0.5L193.8,200.5z"/>
	<path class="st1" d="M201.3,189.7l-0.2,0.9c-0.3-0.1-0.6-0.1-1-0.1c-0.8,0-1.4,0.3-1.9,0.8c-0.5,0.6-0.9,1.4-1.2,2.6v7h-1v-11.2
		h0.9l0.1,2.6c0.3-1,0.7-1.7,1.2-2.1s1.2-0.7,2-0.7C200.6,189.6,201,189.6,201.3,189.7z"/>
	<path class="st1" d="M211,195.8h-7.6c0.1,1.5,0.4,2.7,1.1,3.4s1.5,1.1,2.6,1.1c0.6,0,1.1-0.1,1.6-0.3s0.9-0.5,1.5-0.9l0.5,0.6
		c-0.5,0.5-1.1,0.8-1.7,1c-0.6,0.2-1.2,0.3-1.9,0.3c-1.4,0-2.6-0.5-3.4-1.5c-0.8-1-1.2-2.4-1.2-4.2c0-1.2,0.2-2.2,0.5-3.1
		c0.4-0.9,0.9-1.6,1.5-2.1c0.7-0.5,1.4-0.7,2.3-0.7c1.4,0,2.4,0.5,3.2,1.4s1.1,2.3,1.1,3.9C211,195.2,211,195.5,211,195.8z
		 M210.1,194.6c0-1.3-0.3-2.3-0.8-3.1c-0.5-0.8-1.4-1.1-2.4-1.1c-1,0-1.8,0.4-2.4,1.1c-0.6,0.8-1,1.9-1,3.5h6.7V194.6z"/>
	<path class="st1" d="M227.9,190.4c0.5,0.6,0.8,1.4,0.8,2.5v8h-1v-7.8c0-0.9-0.2-1.6-0.6-2.1c-0.4-0.4-0.9-0.7-1.7-0.7
		c-0.8,0-1.4,0.2-2,0.6c-0.6,0.4-1.1,1-1.7,1.8v8.2h-1v-11.2h0.9l0.1,2c1.1-1.5,2.3-2.2,3.9-2.2
		C226.6,189.6,227.4,189.9,227.9,190.4z"/>
	<path class="st1" d="M240.4,191.1c0.8,1,1.2,2.4,1.2,4.3c0,1.8-0.4,3.3-1.2,4.3c-0.8,1-2,1.6-3.4,1.6s-2.6-0.5-3.4-1.6
		c-0.8-1-1.2-2.5-1.2-4.3c0-1.8,0.4-3.2,1.3-4.3c0.8-1,2-1.6,3.4-1.6C238.5,189.6,239.6,190.1,240.4,191.1z M234.4,191.7
		c-0.6,0.8-1,2.1-1,3.7c0,1.6,0.3,2.8,0.9,3.7c0.6,0.9,1.5,1.3,2.7,1.3c1.1,0,2-0.4,2.7-1.3c0.6-0.9,1-2.1,1-3.7
		c0-1.6-0.3-2.8-0.9-3.7c-0.6-0.8-1.5-1.3-2.7-1.3C235.9,190.4,235,190.8,234.4,191.7z"/>
	<path class="st1" d="M253.1,201h-0.8l-0.1-2.1c-0.9,1.5-2.1,2.3-3.7,2.3c-1,0-1.8-0.3-2.3-0.9c-0.6-0.6-0.8-1.4-0.8-2.5v-8h1v7.9
		c0,0.9,0.2,1.6,0.6,2c0.4,0.4,1,0.6,1.8,0.6c1.4,0,2.5-0.8,3.4-2.4v-8.2h1V201z"/>
	<path class="st1" d="M265,189.8l-3.9,11.2h-1.2l-4-11.2h1.1l3.6,10.3l3.4-10.3H265z"/>
	<path class="st1" d="M275.4,195.8h-7.6c0.1,1.5,0.4,2.7,1.1,3.4s1.5,1.1,2.6,1.1c0.6,0,1.1-0.1,1.6-0.3s0.9-0.5,1.5-0.9l0.5,0.6
		c-0.5,0.5-1.1,0.8-1.7,1c-0.6,0.2-1.2,0.3-1.9,0.3c-1.4,0-2.6-0.5-3.4-1.5c-0.8-1-1.2-2.4-1.2-4.2c0-1.2,0.2-2.2,0.5-3.1
		c0.4-0.9,0.9-1.6,1.5-2.1c0.7-0.5,1.4-0.7,2.3-0.7c1.4,0,2.4,0.5,3.2,1.4s1.1,2.3,1.1,3.9C275.4,195.2,275.4,195.5,275.4,195.8z
		 M274.5,194.6c0-1.3-0.3-2.3-0.8-3.1c-0.5-0.8-1.4-1.1-2.4-1.1c-1,0-1.8,0.4-2.4,1.1c-0.6,0.8-1,1.9-1,3.5h6.7V194.6z"/>
	<path class="st1" d="M279.5,200.7c-0.3-0.3-0.5-0.8-0.5-1.5v-14l1-0.1v14.1c0,0.8,0.3,1.2,1,1.2c0.3,0,0.5,0,0.8-0.2l0.3,0.8
		c-0.4,0.2-0.8,0.3-1.2,0.3C280.3,201.2,279.8,201,279.5,200.7z"/>
	<path class="st1" d="M285.5,200.7c-0.3-0.3-0.5-0.8-0.5-1.5v-14l1-0.1v14.1c0,0.8,0.3,1.2,1,1.2c0.3,0,0.5,0,0.8-0.2l0.3,0.8
		c-0.4,0.2-0.8,0.3-1.2,0.3C286.3,201.2,285.8,201,285.5,200.7z"/>
	<path class="st1" d="M298.7,195.8h-7.6c0.1,1.5,0.4,2.7,1.1,3.4s1.5,1.1,2.6,1.1c0.6,0,1.1-0.1,1.6-0.3s0.9-0.5,1.5-0.9l0.5,0.6
		c-0.5,0.5-1.1,0.8-1.7,1c-0.6,0.2-1.2,0.3-1.9,0.3c-1.4,0-2.6-0.5-3.4-1.5c-0.8-1-1.2-2.4-1.2-4.2c0-1.2,0.2-2.2,0.5-3.1
		c0.4-0.9,0.9-1.6,1.5-2.1c0.7-0.5,1.4-0.7,2.3-0.7c1.4,0,2.4,0.5,3.2,1.4s1.1,2.3,1.1,3.9C298.8,195.2,298.8,195.5,298.7,195.8z
		 M297.8,194.6c0-1.3-0.3-2.3-0.8-3.1c-0.5-0.8-1.4-1.1-2.4-1.1c-1,0-1.8,0.4-2.4,1.1c-0.6,0.8-1,1.9-1,3.5h6.7V194.6z"/>
	<path class="st1" d="M316,191c0.7,1,1,2.4,1,4.3c0,1.8-0.4,3.3-1.1,4.3s-1.8,1.6-3.1,1.6c-0.7,0-1.3-0.1-1.9-0.4
		c-0.6-0.3-1-0.7-1.4-1.2v5.6l-1,0.2v-15.5h0.9l0.1,1.7c0.4-0.6,0.9-1.1,1.5-1.4c0.6-0.3,1.2-0.5,2-0.5
		C314.3,189.6,315.3,190.1,316,191z M315.1,199c0.6-0.8,0.8-2.1,0.8-3.7c0-3.3-1-4.9-3.1-4.9c-0.7,0-1.3,0.2-1.8,0.5
		c-0.5,0.3-1,0.8-1.5,1.5v6.1c0.4,0.6,0.8,1,1.4,1.3c0.5,0.3,1.1,0.5,1.8,0.5C313.7,200.3,314.6,199.9,315.1,199z"/>
	<path class="st1" d="M321.3,200.7c-0.3-0.3-0.5-0.8-0.5-1.5v-14l1-0.1v14.1c0,0.8,0.3,1.2,1,1.2c0.3,0,0.5,0,0.8-0.2l0.3,0.8
		c-0.4,0.2-0.8,0.3-1.2,0.3C322.1,201.2,321.6,201,321.3,200.7z"/>
	<path class="st1" d="M333.8,199.9c0.2,0.3,0.4,0.5,0.7,0.6l-0.2,0.7c-0.5-0.1-0.9-0.3-1.1-0.6s-0.4-0.7-0.5-1.3c-0.8,1.3-2,2-3.5,2
		c-1.1,0-1.9-0.3-2.5-0.9s-0.9-1.4-0.9-2.4c0-1.1,0.4-2,1.2-2.6s1.9-0.9,3.3-0.9h2.3v-1.2c0-0.9-0.2-1.6-0.6-2
		c-0.4-0.4-1.1-0.6-2.1-0.6c-0.9,0-1.9,0.2-3,0.7l-0.3-0.8c1.2-0.5,2.4-0.7,3.4-0.7c1.2,0,2.1,0.3,2.7,0.9c0.6,0.6,0.9,1.5,0.9,2.6
		v5.5C333.6,199.2,333.6,199.6,333.8,199.9z M332.6,198.2V195h-2.1c-1.2,0-2.1,0.2-2.7,0.7c-0.6,0.5-0.9,1.2-0.9,2.1
		c0,0.8,0.2,1.4,0.7,1.9c0.4,0.4,1.1,0.7,1.8,0.7C330.7,200.4,331.8,199.6,332.6,198.2z"/>
	<path class="st1" d="M343.1,200.5c-0.7,0.5-1.5,0.7-2.3,0.7c-0.8,0-1.5-0.2-1.9-0.7c-0.5-0.5-0.7-1.2-0.7-2.1v-7.7h-1.9v-0.8h1.9
		v-2.7l1-0.1v2.8h3l-0.1,0.8h-2.8v7.6c0,1.4,0.6,2.1,1.7,2.1c0.6,0,1.2-0.2,1.8-0.5L343.1,200.5z"/>
	<path class="st1" d="M352.9,195.8h-7.6c0.1,1.5,0.4,2.7,1.1,3.4s1.5,1.1,2.6,1.1c0.6,0,1.1-0.1,1.6-0.3c0.5-0.2,0.9-0.5,1.5-0.9
		l0.5,0.6c-0.5,0.5-1.1,0.8-1.7,1s-1.2,0.3-1.9,0.3c-1.4,0-2.6-0.5-3.4-1.5c-0.8-1-1.2-2.4-1.2-4.2c0-1.2,0.2-2.2,0.5-3.1
		c0.4-0.9,0.9-1.6,1.5-2.1s1.4-0.7,2.3-0.7c1.4,0,2.4,0.5,3.2,1.4s1.1,2.3,1.1,3.9C352.9,195.2,352.9,195.5,352.9,195.8z
		 M351.9,194.6c0-1.3-0.3-2.3-0.8-3.1s-1.4-1.1-2.4-1.1c-1,0-1.8,0.4-2.4,1.1c-0.6,0.8-1,1.9-1,3.5h6.7V194.6z"/>
	<path class="st1" d="M357.7,187.9v1.9h3l-0.2,0.8h-2.9V201h-1v-10.3h-1.9v-0.8h1.9v-1.9c0-0.9,0.3-1.5,0.8-2s1.3-0.7,2.2-0.7
		c0.9,0,1.7,0.2,2.6,0.6l-0.4,0.8c-0.7-0.3-1.5-0.5-2.2-0.5C358.3,185.9,357.7,186.6,357.7,187.9z"/>
	<path class="st1" d="M370.3,191.1c0.8,1,1.2,2.4,1.2,4.3c0,1.8-0.4,3.3-1.2,4.3c-0.8,1-2,1.6-3.4,1.6s-2.6-0.5-3.4-1.6
		c-0.8-1-1.2-2.5-1.2-4.3c0-1.8,0.4-3.2,1.3-4.3c0.8-1,2-1.6,3.4-1.6C368.3,189.6,369.5,190.1,370.3,191.1z M364.2,191.7
		c-0.6,0.8-1,2.1-1,3.7c0,1.6,0.3,2.8,0.9,3.7c0.6,0.9,1.5,1.3,2.7,1.3c1.1,0,2-0.4,2.7-1.3c0.6-0.9,1-2.1,1-3.7
		c0-1.6-0.3-2.8-0.9-3.7c-0.6-0.8-1.5-1.3-2.7-1.3C365.7,190.4,364.9,190.8,364.2,191.7z"/>
	<path class="st1" d="M380.5,189.7l-0.2,0.9c-0.3-0.1-0.6-0.1-1-0.1c-0.8,0-1.4,0.3-1.9,0.8s-0.9,1.4-1.2,2.6v7h-1v-11.2h0.9
		l0.1,2.6c0.3-1,0.7-1.7,1.2-2.1s1.2-0.7,2-0.7C379.9,189.6,380.3,189.6,380.5,189.7z"/>
	<path class="st1" d="M396.1,190.5c0.5,0.6,0.8,1.4,0.8,2.5v8h-1v-7.8c0-0.9-0.2-1.6-0.5-2.1c-0.4-0.4-0.8-0.7-1.5-0.7
		c-0.7,0-1.3,0.2-1.8,0.6c-0.5,0.4-1,1-1.5,1.8v8.2h-1v-7.8c0-0.9-0.2-1.6-0.5-2.1c-0.3-0.4-0.8-0.7-1.5-0.7c-0.7,0-1.3,0.2-1.8,0.6
		c-0.5,0.4-1.1,1-1.5,1.8v8.2h-1v-11.2h0.9l0.1,2c0.4-0.7,1-1.2,1.6-1.6c0.6-0.4,1.2-0.6,1.9-0.6c0.7,0,1.3,0.2,1.8,0.6
		c0.5,0.4,0.8,1,1,1.7c0.5-0.7,1-1.3,1.6-1.7s1.3-0.6,2-0.6C394.9,189.6,395.6,189.9,396.1,190.5z"/>
	<path class="st1" d="M409.1,195.8h-7.6c0.1,1.5,0.4,2.7,1.1,3.4s1.5,1.1,2.6,1.1c0.6,0,1.1-0.1,1.6-0.3c0.5-0.2,0.9-0.5,1.5-0.9
		l0.5,0.6c-0.5,0.5-1.1,0.8-1.7,1s-1.2,0.3-1.9,0.3c-1.4,0-2.6-0.5-3.4-1.5c-0.8-1-1.2-2.4-1.2-4.2c0-1.2,0.2-2.2,0.5-3.1
		c0.4-0.9,0.9-1.6,1.5-2.1s1.4-0.7,2.3-0.7c1.4,0,2.4,0.5,3.2,1.4s1.1,2.3,1.1,3.9C409.2,195.2,409.2,195.5,409.1,195.8z
		 M408.2,194.6c0-1.3-0.3-2.3-0.8-3.1s-1.4-1.1-2.4-1.1c-1,0-1.8,0.4-2.4,1.1c-0.6,0.8-1,1.9-1,3.5h6.7V194.6z"/>
	<path class="st1" d="M426.7,185.2V201h-0.9l-0.1-1.8c-0.3,0.6-0.8,1.1-1.4,1.4s-1.3,0.5-2.1,0.5c-1.3,0-2.3-0.5-3-1.6
		c-0.8-1-1.1-2.4-1.1-4.2c0-1.2,0.2-2.2,0.5-3.1c0.4-0.9,0.9-1.6,1.5-2.1c0.7-0.5,1.4-0.7,2.3-0.7c1.3,0,2.4,0.5,3.2,1.6v-6
		L426.7,185.2z M424.3,199.8c0.5-0.4,1-0.9,1.4-1.7v-5.9c-0.8-1.2-1.8-1.8-3.1-1.8c-1,0-1.9,0.4-2.5,1.3s-1,2.1-1,3.6
		c0,1.6,0.3,2.8,0.9,3.7c0.6,0.9,1.4,1.3,2.4,1.3C423.2,200.3,423.8,200.1,424.3,199.8z"/>
	<path class="st1" d="M432,185.4c0.1,0.2,0.2,0.4,0.2,0.6c0,0.2-0.1,0.5-0.3,0.9l-1.1,2.5h-0.7l0.8-2.7c-0.1-0.1-0.2-0.2-0.3-0.3
		c-0.1-0.1-0.1-0.2-0.1-0.4c0-0.2,0.1-0.4,0.2-0.6c0.2-0.2,0.4-0.2,0.6-0.2C431.6,185.2,431.8,185.2,432,185.4z"/>
	<path class="st1" d="M442.6,199.9c0.2,0.3,0.4,0.5,0.7,0.6l-0.2,0.7c-0.5-0.1-0.9-0.3-1.1-0.6s-0.4-0.7-0.5-1.3c-0.8,1.3-2,2-3.5,2
		c-1.1,0-1.9-0.3-2.5-0.9s-0.9-1.4-0.9-2.4c0-1.1,0.4-2,1.2-2.6s1.9-0.9,3.3-0.9h2.3v-1.2c0-0.9-0.2-1.6-0.6-2
		c-0.4-0.4-1.1-0.6-2.1-0.6c-0.9,0-1.9,0.2-3,0.7l-0.3-0.8c1.2-0.5,2.4-0.7,3.4-0.7c1.2,0,2.1,0.3,2.7,0.9c0.6,0.6,0.9,1.5,0.9,2.6
		v5.5C442.4,199.2,442.5,199.6,442.6,199.9z M441.4,198.2V195h-2.1c-1.2,0-2.1,0.2-2.7,0.7c-0.6,0.5-0.9,1.2-0.9,2.1
		c0,0.8,0.2,1.4,0.7,1.9c0.4,0.4,1.1,0.7,1.8,0.7C439.6,200.4,440.7,199.6,441.4,198.2z"/>
	<path class="st1" d="M454.8,185.2V201H454l-0.1-1.8c-0.3,0.6-0.8,1.1-1.4,1.4s-1.3,0.5-2.1,0.5c-1.3,0-2.3-0.5-3-1.6
		c-0.8-1-1.1-2.4-1.1-4.2c0-1.2,0.2-2.2,0.5-3.1c0.4-0.9,0.9-1.6,1.5-2.1c0.7-0.5,1.4-0.7,2.3-0.7c1.3,0,2.4,0.5,3.2,1.6v-6
		L454.8,185.2z M452.5,199.8c0.5-0.4,1-0.9,1.4-1.7v-5.9c-0.8-1.2-1.8-1.8-3.1-1.8c-1,0-1.9,0.4-2.5,1.3s-1,2.1-1,3.6
		c0,1.6,0.3,2.8,0.9,3.7c0.6,0.9,1.4,1.3,2.4,1.3C451.3,200.3,452,200.1,452.5,199.8z"/>
	<path class="st1" d="M472.4,190.5c0.5,0.6,0.8,1.4,0.8,2.5v8h-1v-7.8c0-0.9-0.2-1.6-0.5-2.1c-0.4-0.4-0.8-0.7-1.5-0.7
		c-0.7,0-1.3,0.2-1.8,0.6c-0.5,0.4-1,1-1.5,1.8v8.2h-1v-7.8c0-0.9-0.2-1.6-0.5-2.1c-0.3-0.4-0.8-0.7-1.5-0.7c-0.7,0-1.3,0.2-1.8,0.6
		c-0.5,0.4-1.1,1-1.5,1.8v8.2h-1v-11.2h0.9l0.1,2c0.4-0.7,1-1.2,1.6-1.6c0.6-0.4,1.2-0.6,1.9-0.6c0.7,0,1.3,0.2,1.8,0.6
		c0.5,0.4,0.8,1,1,1.7c0.5-0.7,1-1.3,1.6-1.7s1.3-0.6,2-0.6C471.2,189.6,471.9,189.9,472.4,190.5z"/>
	<path class="st1" d="M478.8,185.2c0.1,0.1,0.2,0.3,0.2,0.5c0,0.2-0.1,0.4-0.2,0.5c-0.1,0.1-0.3,0.2-0.6,0.2s-0.4-0.1-0.6-0.2
		c-0.1-0.1-0.2-0.3-0.2-0.5c0-0.2,0.1-0.4,0.2-0.5c0.1-0.1,0.3-0.2,0.6-0.2S478.7,185.1,478.8,185.2z M478.8,189.8V201h-1v-11.2
		H478.8z"/>
	<path class="st1" d="M488,189.9c0.5,0.2,1.1,0.5,1.6,0.9l-0.5,0.7c-0.5-0.4-1-0.6-1.4-0.8s-1-0.2-1.5-0.2c-0.8,0-1.4,0.2-1.9,0.5
		s-0.7,0.9-0.7,1.5c0,0.6,0.2,1,0.6,1.3c0.4,0.3,1.1,0.6,2.2,0.9c1.3,0.3,2.2,0.8,2.7,1.2s0.8,1.2,0.8,2.1c0,1-0.4,1.7-1.1,2.3
		c-0.7,0.6-1.7,0.9-2.8,0.9c-0.8,0-1.6-0.1-2.2-0.4c-0.6-0.2-1.2-0.6-1.7-1.1l0.6-0.6c0.5,0.4,1,0.7,1.5,0.9
		c0.5,0.2,1.1,0.3,1.8,0.3c0.9,0,1.6-0.2,2.1-0.6c0.5-0.4,0.8-1,0.8-1.7c0-0.5-0.1-0.9-0.3-1.2c-0.2-0.3-0.5-0.6-0.9-0.8
		s-1-0.4-1.9-0.7c-1.2-0.3-2.1-0.7-2.6-1.2s-0.8-1.1-0.8-1.8c0-0.8,0.3-1.5,1-2.1c0.7-0.5,1.5-0.8,2.6-0.8
		C486.8,189.6,487.4,189.7,488,189.9z"/>
	<path class="st1" d="M497.6,189.9c0.5,0.2,1.1,0.5,1.6,0.9l-0.5,0.7c-0.5-0.4-1-0.6-1.4-0.8s-1-0.2-1.5-0.2c-0.8,0-1.4,0.2-1.9,0.5
		s-0.7,0.9-0.7,1.5c0,0.6,0.2,1,0.6,1.3c0.4,0.3,1.1,0.6,2.2,0.9c1.3,0.3,2.2,0.8,2.7,1.2s0.8,1.2,0.8,2.1c0,1-0.4,1.7-1.1,2.3
		c-0.7,0.6-1.7,0.9-2.8,0.9c-0.8,0-1.6-0.1-2.2-0.4c-0.6-0.2-1.2-0.6-1.7-1.1l0.6-0.6c0.5,0.4,1,0.7,1.5,0.9
		c0.5,0.2,1.1,0.3,1.8,0.3c0.9,0,1.6-0.2,2.1-0.6c0.5-0.4,0.8-1,0.8-1.7c0-0.5-0.1-0.9-0.3-1.2c-0.2-0.3-0.5-0.6-0.9-0.8
		s-1-0.4-1.9-0.7c-1.2-0.3-2.1-0.7-2.6-1.2s-0.8-1.1-0.8-1.8c0-0.8,0.3-1.5,1-2.1c0.7-0.5,1.5-0.8,2.6-0.8
		C496.4,189.6,497,189.7,497.6,189.9z"/>
	<path class="st1" d="M504.1,185.2c0.1,0.1,0.2,0.3,0.2,0.5c0,0.2-0.1,0.4-0.2,0.5c-0.1,0.1-0.3,0.2-0.6,0.2s-0.4-0.1-0.6-0.2
		c-0.1-0.1-0.2-0.3-0.2-0.5c0-0.2,0.1-0.4,0.2-0.5c0.1-0.1,0.3-0.2,0.6-0.2S503.9,185.1,504.1,185.2z M504,189.8V201h-1v-11.2H504z"
		/>
	<path class="st1" d="M515.9,191.1c0.8,1,1.2,2.4,1.2,4.3c0,1.8-0.4,3.3-1.2,4.3c-0.8,1-2,1.6-3.4,1.6s-2.6-0.5-3.4-1.6
		c-0.8-1-1.2-2.5-1.2-4.3c0-1.8,0.4-3.2,1.3-4.3c0.8-1,2-1.6,3.4-1.6C513.9,189.6,515.1,190.1,515.9,191.1z M509.8,191.7
		c-0.6,0.8-1,2.1-1,3.7c0,1.6,0.3,2.8,0.9,3.7c0.6,0.9,1.5,1.3,2.7,1.3c1.1,0,2-0.4,2.7-1.3c0.6-0.9,1-2.1,1-3.7
		c0-1.6-0.3-2.8-0.9-3.7c-0.6-0.8-1.5-1.3-2.7-1.3C511.3,190.4,510.4,190.8,509.8,191.7z"/>
	<path class="st1" d="M528,190.4c0.5,0.6,0.8,1.4,0.8,2.5v8h-1v-7.8c0-0.9-0.2-1.6-0.6-2.1c-0.4-0.4-0.9-0.7-1.7-0.7
		c-0.8,0-1.4,0.2-2,0.6s-1.1,1-1.7,1.8v8.2h-1v-11.2h0.9l0.1,2c1.1-1.5,2.3-2.2,3.9-2.2C526.7,189.6,527.5,189.9,528,190.4z"/>
	<path class="st1" d="M533.7,199.7c0.2,0.2,0.2,0.4,0.2,0.6s-0.1,0.4-0.2,0.6s-0.4,0.2-0.6,0.2c-0.2,0-0.4-0.1-0.6-0.2
		s-0.2-0.4-0.2-0.6s0.1-0.4,0.2-0.6c0.2-0.2,0.4-0.2,0.6-0.2C533.4,199.5,533.6,199.6,533.7,199.7z"/>
</g>
<g>
	<linearGradient id="SVGID_1_" gradientUnits="userSpaceOnUse" x1="42.9468" y1="150.4999" x2="94.0535" y2="150.4999">
		<stop  offset="0" style="stop-color:#479A88"/>
		<stop  offset="0.627" style="stop-color:#40AD9E"/>
		<stop  offset="1" style="stop-color:#39B6A9"/>
	</linearGradient>
	<path class="st2" d="M61.9,168.4c0.3,0.3,0.7,0.4,1.1,0.4c0.5,0,1-0.2,1.4-0.6l29.2-32.9c0.7-0.8,0.6-1.9-0.2-2.6
		c-0.8-0.7-1.9-0.6-2.6,0.2l-28.1,31.6l-16.9-13.5c-0.8-0.6-1.9-0.5-2.6,0.3c-0.6,0.8-0.5,1.9,0.3,2.6L61.9,168.4z"/>
	<linearGradient id="SVGID_2_" gradientUnits="userSpaceOnUse" x1="13.7413" y1="150.5" x2="123.2561" y2="150.5">
		<stop  offset="0" style="stop-color:#479A88"/>
		<stop  offset="0.627" style="stop-color:#40AD9E"/>
		<stop  offset="1" style="stop-color:#39B6A9"/>
	</linearGradient>
	<path class="st3" d="M13.7,95.7v109.5h109.5V95.7H13.7z M119.6,201.6H17.4V99.4h102.2V201.6z"/>
</g>
</svg>
